<?xml version="1.0" standalone="no"?><!DOCTYPE svg PUBLIC "-//W3C//DTD SVG 1.1//EN" "http://www.w3.org/Graphics/SVG/1.1/DTD/svg11.dtd"><svg class="icon" height="512" viewBox="0 0 1024 1024" version="1.1" xmlns="http://www.w3.org/2000/svg"><path d="M511.512381 476.40381m-472.015238 0a472.015238 472.015238 0 1 0 944.030476 0 472.015238 472.015238 0 1 0-944.030476 0Z" fill="#4C91BC" /><path d="M512 950.857143V7.314286C251.12381 7.314286 39.984762 218.453333 39.984762 478.841905S251.12381 950.857143 512 950.857143z" fill="#4889AA" /><path d="M646.582857 358.4c6.339048 7.314286 12.678095 15.60381 18.041905 23.893333-0.975238-3.413333-1.462857-7.314286-2.438095-11.215238-1.462857-10.24-7.314286-13.653333-15.60381-12.678095z" fill="#E2C2A1" /><path d="M549.059048 817.249524l-22.918096-13.165714-63.878095-76.556191c-13.653333-7.314286-28.281905-16.579048-42.422857-28.281905v53.638096l84.845714 98.499047 44.373334-34.133333z" fill="#E2C3A2" /><path d="M513.462857 742.64381c-13.653333 0.487619-31.695238-4.87619-51.2-15.116191l63.878095 76.556191 22.918096 13.165714 60.464762-45.348572 4.388571-27.794285-0.487619-52.175238c-36.08381 31.207619-74.605714 49.737143-99.961905 50.712381z" fill="#D5B69A" /><path d="M788.48 823.100952l-174.567619-65.340952-39.497143 72.167619 16.579048 37.059048-35.108572-20.967619-17.554285 30.232381-28.281905 143.847619h-15.60381l-3.900952-108.251429-7.801905-34.133333-13.165714-26.331429L415.451429 760.685714l-188.220953 55.588572-6.339047 16.091428s40.96 188.708571 127.75619 186.758096 306.712381 3.413333 335.969524 0c25.84381-2.925714 111.177143-177.493333 111.177143-177.493334l-7.314286-18.529524zM688.030476 984.990476h-79.481905v-15.603809h3.413334v-6.826667h74.118095v6.826667h1.950476v15.603809z" fill="#393B3A" /><path d="M654.872381 846.994286l-10.24-71.68-26.331429-9.752381-103.862857 79.481905-48.274285-31.695239-48.761905-47.786666-29.744762 2.925714-0.975238 97.036191L452.998095 1019.12381l56.076191 0.487619 72.167619 0.487619z" fill="#CFC2B5" /><path d="M590.506667 867.474286l0.487619-0.487619h-0.975238z" fill="#B8A18D" /><path d="M322.80381 507.611429c-1.462857-5.36381-2.438095-10.727619-3.900953-16.579048-0.487619 0-1.462857 0.487619-1.950476 0.487619-9.752381 4.388571-28.769524 10.727619-20.48 53.150476s17.554286 45.348571 17.554286 45.348572 13.165714 2.925714 19.504762-9.752381c-6.826667-19.504762-10.727619-39.984762-10.727619-61.44-0.487619-3.900952-0.487619-7.801905 0-11.215238zM690.95619 587.580952c5.36381 2.438095 10.24 1.950476 10.24 1.950477s10.24-1.950476 21.942858-42.910477-7.314286-48.274286-17.066667-53.638095c-0.975238-0.487619-1.950476-0.975238-2.925714-0.975238 0.975238 8.777143 1.462857 18.041905 1.462857 27.306667 0 23.893333-4.87619 46.811429-13.653334 68.266666z" fill="#E2C2A1" /><path d="M513.462857 742.64381c24.868571-0.975238 63.878095-19.504762 99.961905-50.224762 31.695238-26.819048 60.952381-62.902857 77.531428-104.838096 8.289524-21.455238 13.653333-44.373333 13.653334-68.754285 0-9.264762-0.487619-18.041905-1.462857-27.306667 0 0 0 1.462857 0 0-3.413333 7.801905-6.826667 6.826667-6.826667 6.826667l-11.702857 43.398095s0.487619-10.727619-0.975238-16.091429c-0.975238-5.36381-9.752381-41.935238-8.777143-75.580952 0.975238-29.257143-5.36381-44.860952-10.24-67.779048-5.36381-8.289524-11.702857-16.579048-18.041905-23.893333-14.628571 1.462857-37.546667 14.628571-62.902857 19.017143-39.984762 7.314286-109.714286 0.975238-146.285714-24.380953-37.059048-25.35619-62.415238 24.380952-62.415238 24.380953-34.133333 10.24-29.744762 96.548571-32.182858 104.350476-6.826667 24.380952-7.801905 31.207619-7.801904 31.207619l-1.950476 36.08381c-0.975238-5.36381-5.36381-20.967619-10.24-41.935238 0 3.900952-0.487619 7.801905-0.48762 11.702857 0 21.455238 3.900952 41.935238 10.72762 61.44 16.579048 47.786667 50.712381 89.721905 86.308571 118.979047 14.140952 11.702857 28.769524 20.967619 42.422857 28.281905 19.992381 10.24 38.034286 15.60381 51.687619 15.116191z" fill="#E2C2A1" /><path d="M611.961905 962.56h74.118095v6.826667h-74.118095z" fill="#F6F4F9" /><path d="M611.961905 969.386667h-3.900953v15.603809h79.969524v-15.603809h-2.438095z" fill="#2B2D2C" /><path d="M516.87619 851.382857l-78.019047 67.291429s-43.398095-87.28381-43.398095-99.961905 8.289524-41.935238 8.289523-41.935238l113.127619 74.605714zM516.87619 851.382857l78.019048 67.291429s43.398095-87.28381 43.398095-99.961905-8.289524-41.935238-8.289523-41.935238L516.87619 851.382857z" fill="#C0B4A9" /><path d="M409.112381 766.049524l-14.628571 14.140952s-4.388571 19.017143-1.462858 59.001905c2.925714 40.472381 58.026667 175.055238 58.026667 175.055238l2.438095 4.876191h-6.339047s-86.79619-142.384762-88.746667-206.750477l17.066667-8.289523-17.066667-1.950477s8.777143-14.628571 18.529524-24.868571c12.678095-14.140952 32.670476-15.11619 32.670476-15.116191l-0.487619 3.900953z" fill="#58607F" /><path d="M343.28381 587.580952s-12.678095-186.270476 37.546666-205.287619c0 0 9.752381-34.133333 56.56381-15.603809S508.099048 394.971429 590.019048 377.417143s67.291429 2.438095 76.068571 21.942857c8.777143 19.504762 8.777143 44.860952 9.752381 67.779048 0.487619 22.918095 11.702857 67.291429 8.289524 92.647619 0 0 28.769524-40.472381 29.257143-153.112381 0-112.64 7.801905-108.739048 7.801904-108.739048s-50.224762-37.546667-51.687619-73.142857c-1.462857-35.59619-61.927619-38.034286-61.927619-38.034286s-42.910476-25.84381-37.059047-44.860952c0 0-232.594286 13.653333-223.329524 152.624762 0 0-100.449524 27.306667-3.900952 293.059047z" fill="#393A3D" /><path d="M420.815238 733.866667s-7.801905 40.96 94.110476 99.961904l-75.093333 59.001905s-46.811429-78.019048-37.059048-112.152381 18.041905-46.811429 18.041905-46.811428z" fill="#DDCDBC" /><path d="M623.664762 765.074286l14.628571 14.140952s4.388571 19.017143 1.462857 59.001905c-2.925714 40.472381-58.026667 175.055238-58.026666 175.055238l-2.925714 6.826667h6.339047s86.79619-144.335238 89.234286-208.700953l-17.066667-8.289524 17.066667-1.950476s-8.777143-14.628571-18.529524-24.868571c-12.678095-14.140952-32.670476-15.11619-32.670476-15.116191l0.487619 3.900953z" fill="#58607F" /><path d="M612.449524 733.866667s8.289524 40.96-95.573334 99.961904l76.556191 59.001905s47.299048-78.019048 38.034286-112.152381c-10.24-34.620952-19.017143-46.811429-19.017143-46.811428z" fill="#DDCDBC" /><path d="M514.925714 833.828571l-33.645714 24.380953 18.041905 30.72-23.405715 130.681905 76.068572 0.487619-23.893333-131.169524 20.48-30.72-31.695239-24.380953z" fill="#1D2339" /></svg>